inDegrees=no
num_controls=7
num_derivatives=13
num_iterations=89
num_multipliers=7
num_parameters=0
num_slacks=7
num_states=26
objective=0.334829
objective_accelerations=0.037216
objective_balance=0.001589
objective_effort=0.027442
objective_height=0.267089
objective_ligament=0.001492
solver_duration=930.840438
status=Solve_Succeeded
success=true
DataType=double
version=3
OpenSimVersion=4.5
endheader
time	/jointset/ground_pelvis/pelvis_tilt/value	/jointset/ground_pelvis/pelvis_tx/value	/jointset/ground_pelvis/pelvis_ty/value	/jointset/hip_r/hip_flexion_r/value	/jointset/hip_r/hip_adduction_r/value	/jointset/hip_r/hip_rotation_r/value	/jointset/back/lumbar_extension/value	/jointset/patellofemoral_r/patellar_flexion_r/value	/jointset/knee_r/knee_flexion_r/value	/jointset/knee_r/knee_adduction_r/value	/jointset/knee_r/knee_rotation_r/value	/jointset/ankle_r/ankle_angle_r/value	/jointset/subtalar_r/subtalar_angle_r/value	/jointset/ground_pelvis/pelvis_tilt/speed	/jointset/ground_pelvis/pelvis_tx/speed	/jointset/ground_pelvis/pelvis_ty/speed	/jointset/hip_r/hip_flexion_r/speed	/jointset/hip_r/hip_adduction_r/speed	/jointset/hip_r/hip_rotation_r/speed	/jointset/back/lumbar_extension/speed	/jointset/patellofemoral_r/patellar_flexion_r/speed	/jointset/knee_r/knee_flexion_r/speed	/jointset/knee_r/knee_adduction_r/speed	/jointset/knee_r/knee_rotation_r/speed	/jointset/ankle_r/ankle_angle_r/speed	/jointset/subtalar_r/subtalar_angle_r/speed	/forceset/tau_hip_flexion_r	/forceset/tau_hip_adduction_r	/forceset/tau_hip_rotation_r	/forceset/tau_knee_flexion_r	/forceset/tau_ankle_angle_r	/forceset/tau_subtalar_angle_r	/forceset/tau_lumbar_extension	lambda_cid13_p0	lambda_cid14_p0	lambda_cid14_p1	lambda_cid14_p2	lambda_cid14_p3	lambda_cid14_p4	lambda_cid14_p5	/jointset/ground_pelvis/pelvis_tilt/accel	/jointset/ground_pelvis/pelvis_tx/accel	/jointset/ground_pelvis/pelvis_ty/accel	/jointset/hip_r/hip_flexion_r/accel	/jointset/hip_r/hip_adduction_r/accel	/jointset/hip_r/hip_rotation_r/accel	/jointset/back/lumbar_extension/accel	/jointset/patellofemoral_r/patellar_flexion_r/accel	/jointset/knee_r/knee_flexion_r/accel	/jointset/knee_r/knee_adduction_r/accel	/jointset/knee_r/knee_rotation_r/accel	/jointset/ankle_r/ankle_angle_r/accel	/jointset/subtalar_r/subtalar_angle_r/accel	gamma_cid13_p0	gamma_cid14_p0	gamma_cid14_p1	gamma_cid14_p2	gamma_cid14_p3	gamma_cid14_p4	gamma_cid14_p5
1	-0.2501727269382221	-0.01223926459273038	0.6306522571294869	1.452068027401216	-0.2380354419796813	-0.0846123431981594	-0.7853981560541432	1.518462844040906	1.518462844040906	-0.1745324928182221	0.1726339083009994	0.4362060579362428	0.1762087527988715	0.07757832891135835	0.005615877400328538	0.01467686470637996	-0.1058738336727858	-0.001270784789426996	-0.006657214845516974	-4.422694219389812e-06	-0.01236421964109139	-0.01236421964109132	-0.002246627391457507	-0.0001949423051976056	0.01667286425270035	0.006362914615639485	-0.3447969879752055	0.04401348559626092	0.008850961272264863	-0.4546334708507724	-0.02474907884023481	-0.0004472251314807952	0.364214860209416	-0.04096243436866017	-60.44949844454931	-15.83173656129934	8.717957907855988	8.142296436729458	-772.0924969831786	56.92038208879454	1.292130603833503	0.1463005797003808	1.862444548849267	-5.549705912550881	0.2151052547485096	-0.3365358425162754	0.002488644474024083	-5.100787006591969	-5.100787006592576	1.031157733224171	0.0451555167638944	-1.036767058039638	-0.1201403212033161	2.615616880170076e-09	2.844304515079843e-10	1.10199469116133e-08	8.413723032828058e-09	4.355297702931719e-09	-8.835309735028729e-09	2.570750218569983e-08
1.01	-0.2493334442068697	-0.01217568091361406	0.6308920889365088	1.450732767501449	-0.2380375105901133	-0.0846927824707779	-0.785396032912751	1.518084295580301	1.518084295580302	-0.1745002159895485	0.1726340415185141	0.4363209063889952	0.1762660568520984	0.09023051033488848	0.00711508373851257	0.03329581613252817	-0.1611679339137523	0.0008549264509441276	-0.009408188668605315	0.000561013332768723	-0.06337700392585392	-0.0633770039258567	0.008738702449525385	0.0002223778104744058	0.006298330716528805	0.005093669432877125	-0.3450607077285996	0.04408844655422767	0.008962312158022996	-0.4552292584628421	-0.02439639696178557	-0.0005302137248500138	0.3648570710290878	-0.04096645475611932	-60.38594207197292	-15.87781956820716	8.749485463817248	7.895277853349564	-772.8225907306156	56.93757532783872	1.244608270993911	0.1538653436034593	1.86256500281367	-5.517728185727278	0.210989385180958	-0.2410067261410476	0.1033654351261978	-5.106255416990786	-5.106255416990824	1.137725861947226	0.04015175246369325	-1.037571239123929	-0.1309390848120954	7.751416302347472e-09	5.873972529721411e-09	3.829633659518877e-08	4.58592454112901e-08	4.426424264222093e-09	-1.668005610871835e-08	9.040401642723515e-08
1.02	-0.2483690703894065	-0.01209667823457066	0.6313182991704553	1.4488448733781	-0.2380183850228416	-0.08480005719641308	-0.7853842965404003	1.517194673021334	1.517194673021333	-0.1743569848119683	0.1726383742358871	0.4363320545588238	0.1763105439598978	0.1025965461336647	0.008699677385745107	0.05195255009131234	-0.216400678389029	0.002968050751294977	-0.01202430544913012	0.001918223492353612	-0.1145790393135129	-0.1145790393135156	0.01994424238698219	0.0006449576659397955	-0.004067192328364035	0.003799525530138971	-0.3453244274820007	0.0441634075122007	0.00907366304374752	-0.4558250460749157	-0.02404371508333366	-0.00061320231820525	0.3654992818487535	-0.04097716745546123	-60.32938938589714	-15.91907023345871	8.773321775912835	7.648577115399837	-773.6741396750672	56.99603343056375	1.234901478882728	0.163378041510068	1.870001055376456	-5.537434759412882	0.2125878667444601	-0.3095644340035765	0.1608434709932663	-5.138637227171273	-5.13863722717128	1.075199752518942	0.04620746472256699	-1.034964959783924	-0.1251200651984792	1.419824821557175e-08	1.718238487353698e-08	7.493193165055374e-08	9.745046673890548e-08	-4.103342360222822e-09	-2.227040138766734e-08	1.773852191262641e-07
1.03	-0.2472824944623831	-0.01200136964574094	0.6319311033027175	1.446405323213231	-0.2379782460653104	-0.08493293002550417	-0.7853544714541653	1.515792441288307	1.515792441288308	-0.1741007500340641	0.1726470264393457	0.4362396197718802	0.1763418795590076	0.1146658606817361	0.01037964519976866	0.07059816715391494	-0.271460446996112	0.005052580334463483	-0.01453874389805297	0.004237431192479328	-0.1658633649845477	-0.1658633649845497	0.03132375603101968	0.001091777154295481	-0.0144156618164635	0.002455666578632572	-0.3457866441016303	0.04422344213403202	0.009194284553691243	-0.4555780397559699	-0.02430037799719907	-0.0006257707679360237	0.3663332000028384	-0.04099138745012169	-60.43460393623464	-15.93380486890475	8.76522398702655	7.498937877055988	-774.1354496891628	56.99684153593831	1.185035803756377	0.1729442779207577	1.860320049333629	-5.482906003740868	0.2053304285915335	-0.2206434816182741	0.2960550350291959	-5.122743061819796	-5.122743061819707	1.17247924698379	0.0449035098726409	-1.034171950745963	-0.1407726774139049	2.065845801135773e-08	2.854915303638934e-08	1.116630288015493e-07	1.49186031933349e-07	-1.272087320084876e-08	-2.783774257381284e-08	2.645938166054716e-07
1.04	-0.2460768075176818	-0.01188873375345651	0.6327300592091321	1.44341664374381	-0.2379174728270498	-0.08509059922534228	-0.7852957351678227	1.513877483733621	1.513877483733626	-0.1737300897043906	0.1726603437014838	0.4360438234885673	0.176359425795145	0.1264187496692878	0.0121651380766872	0.08918290492176915	-0.3262265392985911	0.00709490689717136	-0.01698357959824113	0.007700463512882528	-0.2171242036455918	-0.2171242036455932	0.04282935274056246	0.001577969401874107	-0.02473949160148291	0.001041652935638876	-0.3462488607212867	0.04428347675586159	0.009314906063634207	-0.4553310334370252	-0.02455704091106073	-0.0006383392176680874	0.3671671181568982	-0.04101244449754684	-60.546876818586	-15.94356811277033	8.749243029523596	7.348347368671647	-774.7205175298292	57.03955028758397	1.171616366778782	0.1844830540890782	1.857825196426778	-5.47869949849211	0.2041472626523301	-0.2956438842566413	0.3896083950487303	-5.133939825173157	-5.133939825173136	1.100416365619998	0.05408201656715761	-1.030037019167886	-0.1391510034959328	2.678456798970378e-08	3.794711090444045e-08	1.43235684864905e-07	1.966138722451726e-07	-1.845806841933594e-08	-3.407239714377484e-08	3.420342413969566e-07
1.05	-0.2447550606912793	-0.01175770119919208	0.6337144896862769	1.439881819701791	-0.2378364945737194	-0.0852724579637413	-0.7851968033004336	1.511450139287713	1.511450139287712	-0.1732438571280973	0.1726786975032738	0.4357448544026396	0.1763624420372792	0.1378864873691722	0.01406040741848144	0.1076859869660906	-0.3806819434150484	0.009093435086500254	-0.01937978726435158	0.01226454648909663	-0.268330122474478	-0.268330122474476	0.05443189809547529	0.002095128016989575	-0.03505607062016842	-0.0004532932527020213	-0.3463805238472813	0.04431799428678328	0.009495980992994577	-0.4547876315039285	-0.02473088255127168	-0.0006675303921939899	0.3677290172088356	-0.04104105959110323	-60.60533605733796	-15.94801323749219	8.728856565575663	7.186679168993184	-774.8784894199907	57.03997551804965	1.127742855464208	0.1948991925055971	1.843961048504468	-5.420502877207711	0.1966404339442439	-0.210330926438962	0.5166037274670648	-5.111740094346178	-5.111740094345668	1.192376388385486	0.05094838282173001	-1.032728945667239	-0.1568433584323684	3.290023734875483e-08	4.728354345077902e-08	1.746471396442721e-07	2.439070961544142e-07	-2.410525314963129e-08	-4.03279052569811e-08	4.191694107919503e-07
1.06	-0.2433199584111036	-0.01160714588785347	0.6348834332518789	1.43580413321681	-0.2377357440711208	-0.08547802312253362	-0.7850468715075692	1.508511171216997	1.50851117121699	-0.1726411585446598	0.1727023060109817	0.4353426674060348	0.1763500734311444	0.149089840423894	0.01606968949152104	0.1260855226131932	-0.4347990278909134	0.01104935675067224	-0.02172486367649037	0.01790044860768237	-0.3194489286073576	-0.3194489286073521	0.0661225541687302	0.002628910585624774	-0.04538307373678802	-0.002035316718210949	-0.3465121869732776	0.04435251181770361	0.009677055922342852	-0.4542442295708334	-0.02490472419148295	-0.0006967215667222699	0.3682909162607713	-0.04107663104125713	-60.67091814181783	-15.94742624969806	8.700494994093816	7.022879531357208	-775.1626225328162	57.08240501018022	1.118739437746248	0.2072856003381634	1.837115916982997	-5.411035570373667	0.1956259576209458	-0.2854176334623109	0.6039722235230418	-5.116517285971836	-5.116517285971797	1.118038509288411	0.05740680727110683	-1.032121838754682	-0.1565664589295349	3.813412070349075e-08	5.5049907954255e-08	2.009065154146494e-07	2.849146965751001e-07	-2.861827343479786e-08	-4.573623507144852e-08	4.831925582327995e-07
1.07	-0.2417739891987435	-0.0114359076976916	0.6362357904386229	1.431186959155409	-0.2376156661219457	-0.08570681566533074	-0.7848354418703565	1.50506156770198	1.505061567701977	-0.1719211571988795	0.1727313184004251	0.4348371201659709	0.1763213983640658	0.1600729222217329	0.01819898162065742	0.144362105498201	-0.4885780126002762	0.01295775582509411	-0.02401843137405276	0.02454522846759111	-0.3704450414940668	-0.3704450414940583	0.077897256216564	0.0031718594687115	-0.05573189397553728	-0.003718526872808883	-0.3462761250226581	0.0443400917947655	0.009919375967781171	-0.4534237456867587	-0.02494786332126963	-0.0007399247577145478	0.3685430005317003	-0.04111898654663249	-60.66521571305928	-15.93699532807982	8.666626057639132	6.830934570729098	-774.9994339714119	57.09211306781752	1.083443099057407	0.2188993040414261	1.819347792907976	-5.352652208256951	0.1872169844318887	-0.1990156325839157	0.7186933120886724	-5.087157092285291	-5.087157092284865	1.210107081760666	0.0525688980369629	-1.037088420361825	-0.1769486129104808	4.332110054735885e-08	6.273275820013188e-08	2.268918444292293e-07	3.255879553208626e-07	-3.307096582394693e-08	-5.109950221045113e-08	5.465182576973644e-07
1.08	-0.2401191190587538	-0.01124274692927033	0.6377701971179466	1.426033730789507	-0.2374767501616095	-0.085958081744042	-0.784552771945571	1.501102803297643	1.501102803297643	-0.1710828246267727	0.1727657262725401	0.4342279194627341	0.1762753411316042	0.17087002594976	0.02045420514340107	0.1624954211291374	-0.5420098887912137	0.0148169589826795	-0.02621957085884352	0.03214850612205441	-0.4212811064713697	-0.4212811064713585	0.08978879943358968	0.003708007120178672	-0.06611376637135748	-0.005511749794829181	-0.3460400630720308	0.044327671771826	0.01016169601321653	-0.4526032618026843	-0.02499100245105827	-0.0007831279487103198	0.3687950848026367	-0.04116838813715913	-60.66673143613299	-15.92153012582209	8.624760123923569	6.635817271312168	-774.965173564329	57.14362746636598	1.081543823783852	0.2324718790596257	1.808462466168697	-5.341613866688594	0.1857867742536456	-0.2669319909079859	0.7956717824339393	-5.084507704090589	-5.084507704090587	1.141406743126788	0.05604656094719989	-1.038732270168847	-0.1785690124140047	4.781459378773764e-08	6.943555587265305e-08	2.494155505127405e-07	3.62342956647723e-07	-3.710169806204802e-08	-5.538701546393325e-08	6.002052114278694e-07
